<svg xmlns="http://www.w3.org/2000/svg" viewBox="0 0 400 300" width="100%" height="100%" style="background:#f1f5f9;border-radius:6px;border:1px solid #cbd5e1;">
    <rect x="20" y="20" width="100" height="24" rx="4" fill="#94a3b8"/>
    <!-- Sidebar Left -->
    <rect x="20" y="60" width="80" height="200" rx="4" fill="#e2e8f0"/>
    <rect x="30" y="75" width="60" height="8" rx="2" fill="#cbd5e1"/>
    <rect x="30" y="95" width="40" height="8" rx="2" fill="#cbd5e1"/>
    
    <!-- Grid elements -->
    <!-- Row 1 -->
    <rect x="120" y="60" width="80" height="90" rx="4" fill="#fff"/>
    <rect x="120" y="60" width="80" height="50" rx="4" fill="#cbd5e1"/>
    
    <rect x="210" y="60" width="80" height="90" rx="4" fill="#fff"/>
    <rect x="210" y="60" width="80" height="50" rx="4" fill="#cbd5e1"/>

    <rect x="300" y="60" width="80" height="90" rx="4" fill="#fff"/>
    <rect x="300" y="60" width="80" height="50" rx="4" fill="#cbd5e1"/>

    <!-- Row 2 -->
    <rect x="120" y="170" width="80" height="90" rx="4" fill="#fff"/>
    <rect x="120" y="170" width="80" height="50" rx="4" fill="#cbd5e1"/>

    <rect x="210" y="170" width="80" height="90" rx="4" fill="#fff"/>
    <rect x="210" y="170" width="80" height="50" rx="4" fill="#cbd5e1"/>

    <rect x="300" y="170" width="80" height="90" rx="4" fill="#fff"/>
    <rect x="300" y="170" width="80" height="50" rx="4" fill="#cbd5e1"/>
</svg>
